<svg height="512pt" viewBox="0 -1 512 512" width="512pt" xmlns="http://www.w3.org/2000/svg"><path d="m158.351562 109.476562s70.855469 43.230469 68.898438 136.710938h57.5c-1.957031-93.480469 68.898438-136.710938 68.898438-136.710938zm0 0" fill="#fccf3f"/><path d="m373.699219 82.238281c-.039063-14.746093-12-26.6875-26.753907-26.6875-5.847656 0-11.253906 1.882813-15.660156 5.070313-4.4375-16.257813-19.300781-28.207032-36.960937-28.207032-2.484375 0-4.90625.242188-7.257813.695313-3.132812-14.636719-16.136718-25.609375-31.707031-25.609375-15.492187 0-28.4375 10.863281-31.65625 25.386719-1.964844-.308594-3.976563-.472657-6.027344-.472657-17.660156 0-32.523437 11.949219-36.964843 28.207032-4.402344-3.1875-9.808594-5.070313-15.660157-5.070313-14.75 0-26.714843 11.941407-26.75 26.6875-16.328125 1.25-29.191406 14.882813-29.191406 31.53125 0 17.472657 14.164063 31.640625 31.636719 31.640625 11.488281 0 21.542968-6.121094 27.085937-15.28125 7.417969 9.308594 18.84375 15.28125 31.671875 15.28125 12.113282 0 22.976563-5.328125 30.398438-13.757812 5.699218 8.308594 15.261718 13.757812 26.097656 13.757812s20.394531-5.453125 26.097656-13.757812c7.417969 8.429687 18.285156 13.757812 30.398438 13.757812 12.824218 0 24.25-5.972656 31.671875-15.28125 5.542969 9.15625 15.597656 15.28125 27.082031 15.28125 17.472656 0 31.640625-14.167968 31.640625-31.640625 0-16.648437-12.863281-30.28125-29.191406-31.53125zm0 0" fill="#efefef"/><path d="m373.699219 82.238281c-.039063-14.746093-12-26.6875-26.753907-26.6875-5.847656 0-11.253906 1.882813-15.660156 5.070313-4.4375-16.257813-19.300781-28.207032-36.960937-28.207032-2.484375 0-4.90625.242188-7.257813.695313-3.132812-14.636719-16.136718-25.609375-31.707031-25.609375-15.105469 0-27.789063 10.335938-31.394531 24.3125.109375.429688.214844.859375.308594 1.292969 2.347656-.449219 4.773437-.695313 7.253906-.695313 13.800781 0 25.890625 7.296875 32.636718 18.238282 2.871094 4.660156 8.320313 6.960937 13.640626 5.660156 2.035156-.496094 4.160156-.757813 6.347656-.757813 12.351562 0 22.746094 8.367188 25.824218 19.742188 1.074219 3.96875 4.160157 7.085937 8.082032 8.332031 12.777344 4.0625 22.039062 16.019531 22.039062 30.144531 0 16.84375-13.167968 30.609375-29.769531 31.578125.71875.039063 1.441406.058594 2.167969.058594 12.828125 0 24.253906-5.96875 31.671875-15.277344 5.929687 9.792969 17.015625 16.113282 29.492187 15.191406 15.351563-1.136718 27.835938-13.492187 29.117188-28.832031 1.492187-17.859375-11.871094-32.933593-29.078125-34.25zm0 0" fill="#d8d8d8"/><path d="m289.070312 208.722656h-65.753906c-2.304687 0-4.289062 1.609375-4.761718 3.863282-4.640626 22.289062-34.625 137.714843-176.515626 260.605468h428.308594c-141.890625-122.890625-171.875-238.316406-176.515625-260.605468-.472656-2.253907-2.457031-3.863282-4.761719-3.863282zm0 0" fill="#575d60"/><path d="m466.632812 469.9375c-138.683593-121.667969-168.199218-235.257812-172.800781-257.351562-.472656-2.253907-2.457031-3.863282-4.761719-3.863282h-39.75c7.21875 46.757813 36.839844 159.449219 158.097657 264.46875h62.929687c-1.253906-1.085937-2.488281-2.167968-3.714844-3.253906zm0 0" fill="#464c50"/><path d="m485.226562 463.007812h-458.453124c-10.644532 0-19.273438 8.625-19.273438 19.269532 0 10.644531 8.628906 19.273437 19.273438 19.273437h458.453124c10.644532 0 19.273438-8.628906 19.273438-19.273437 0-10.644532-8.628906-19.269532-19.273438-19.269532zm0 0" fill="#7bb72e"/><path d="m216.449219 267.957031c6.683593-5.476562 16.667969-3.765625 21.144531 3.625l.339844.554688c8.488281 14.011719 28.667968 14.429687 37.730468.78125l.960938-1.449219c4.6875-7.0625 14.484375-8.472656 20.972656-3.015625 0 0 6.289063 5.011719 12.253906 9.550781 2.796876 2.125 6.570313-.898437 5.125-4.101562-13.921874-30.800782-19.375-52.824219-21.144531-61.316406-.46875-2.253907-2.457031-3.863282-4.761719-3.863282h-65.753906c-2.300781 0-4.289062 1.609375-4.757812 3.863282-1.789063 8.574218-7.332032 30.941406-21.550782 62.210937-1.449218 3.1875 2.289063 6.214844 5.09375 4.125 6.773438-5.054687 14.347657-10.964844 14.347657-10.964844zm0 0" fill="#fc4e51"/><path d="m230.917969 320.183594c1.9375-3.660156.542969-8.199219-3.121094-10.136719s-8.199219-.539063-10.136719 3.121094c-5.210937 9.851562-38.132812 64.46875-48.929687 79.539062-2.414063 3.367188-1.707031 8.152344 1.726562 10.464844 3.25 2.1875 8.292969 1.355469 10.464844-1.730469 10.9375-15.511718 44.675781-71.203125 49.996094-81.257812zm0 0"/><path d="m207.871094 443.953125c3.265625 2.46875 8.042968 1.800781 10.507812-1.460937 14.175782-18.742188 26.058594-37.628907 35.328125-56.128907 1.855469-3.703125.355469-8.207031-3.347656-10.0625s-8.210937-.359375-10.0625 3.34375c-8.859375 17.683594-20.257813 35.785157-33.882813 53.800781-2.5 3.308594-1.84375 8.007813 1.457032 10.507813zm0 0"/><path d="m485.226562 455.503906h-458.453124c-14.761719 0-26.773438 12.011719-26.773438 26.773438 0 14.761718 12.011719 26.773437 26.773438 26.773437h458.453124c14.761719 0 26.773438-12.011719 26.773438-26.773437 0-14.761719-12.011719-26.773438-26.773438-26.773438zm0 38.546875h-458.453124c-6.492188 0-11.773438-5.28125-11.773438-11.773437 0-6.492188 5.28125-11.769532 11.773438-11.769532h458.453124c6.492188 0 11.773438 5.277344 11.773438 11.769532 0 6.492187-5.28125 11.773437-11.773438 11.773437zm0 0"/><path d="m80.632812 447.871094c47.117188-45.019532 89.34375-99.648438 117.882813-158.714844 9.664063-5.789062 22.472656-15.226562 22.546875-15.289062.046875-.035157.09375-.070313.136719-.105469 3.070312-2.542969 7.9375-1.660157 9.980469 1.710937 5.363281 8.847656 15.082031 14.796875 25.503906 14.929688 10.0625.128906 19.660156-4.949219 25.226562-13.332032 2.464844-3.714843 6.863282-6.234374 10.859375-2.875.050781.042969.101563.085938.152344.125.0625.050782 20.527344 13.980469 20.527344 13.980469 33.550781 63.222657 69.058593 111.222657 117.355469 158.640625 2.957031 2.902344 7.707031 2.855469 10.605468-.097656 2.902344-2.957031 2.859375-7.707031-.097656-10.609375-111.546875-109.507813-136.308594-206.789063-140.140625-225.175781-.597656-2.867188-2.179687-5.335938-4.347656-7.082032 4.617187-18.621093 12.664062-36.003906 23.988281-51.789062 8.429688-1.46875 16.265625-5.152344 22.769531-10.707031 7.238281 7.273437 17.074219 11.429687 27.667969 11.429687 21.582031 0 39.136719-17.558594 39.136719-39.140625 0-18.160156-12.667969-33.777343-29.816407-38-4-20.59375-25.589843-32.859375-45.332031-25.664062-7.957031-15.746094-24.640625-25.941407-42.867187-25.152344-6.015625-14.789063-20.636719-24.953125-37.011719-24.953125-16.324219 0-30.964844 10.15625-36.996094 24.917969-17.765625-.28125-33.832031 9.804687-41.601562 25.1875-19.726563-7.1875-41.332031 5.058593-45.335938 25.664062-17.148437 4.222657-29.816406 19.839844-29.816406 38 0 21.582031 17.554687 39.140625 39.136719 39.140625 10.597656 0 20.429687-4.15625 27.667968-11.429687 6.507813 5.554687 14.34375 9.238281 22.769532 10.707031 11.382812 15.863281 19.453125 33.335938 24.058594 52.066406-2 1.726563-3.464844 4.082032-4.03125 6.804688-2.183594 10.488281-9.480469 39.191406-29.992188 79.132812-26.226562 51.070313-63.597656 100.511719-111.078125 146.957032-2.960937 2.894531-3.011719 7.644531-.117187 10.605468 1.394531 1.421875 6.914062 3.644532 10.609374.117188zm149.3125-246.648438c-4.242187-17.507812-11.21875-34.023437-20.847656-49.292968 7.402344-1.515626 14.359375-4.753907 20.285156-9.46875 7.167969 6.644531 16.644532 10.449218 26.617188 10.449218s19.449219-3.804687 26.617188-10.449218c5.925781 4.714843 12.882812 7.953124 20.285156 9.46875-9.628906 15.273437-16.605469 31.785156-20.847656 49.292968zm-56.25-75.765625c-3.191406-4.003906-9.636718-3.574219-12.28125.789063-4.417968 7.304687-12.144531 11.664062-20.667968 11.664062-13.308594 0-24.136719-10.828125-24.136719-24.140625 0-12.53125 9.78125-23.097656 22.261719-24.054687 3.902344-.300782 6.917968-3.546875 6.929687-7.457032.039063-15.683593 17.898438-24.6875 30.515625-15.5625 4.171875 3.019532 10.285156.835938 11.628906-4.101562 3.648438-13.355469 15.875-22.683594 29.730469-22.683594 5.144531 0 11.804688 1.566406 13.347657-5.398437 2.503906-11.308594 12.738281-19.511719 24.335937-19.511719 11.679687 0 21.929687 8.273438 24.371094 19.679688 1.566406 7.300781 9.164062 5.230468 14.589843 5.230468 13.855469 0 26.082032 9.328125 29.730469 22.683594 1.351563 4.953125 7.472657 7.109375 11.628907 4.101562 12.601562-9.117187 30.476562-.136718 30.515624 15.558594.011719 3.914063 3.027344 7.160156 6.929688 7.460938 12.484375.957031 22.261719 11.523437 22.261719 24.054687 0 13.308594-10.828125 24.136719-24.136719 24.136719-8.523438 0-16.246094-4.359375-20.667969-11.660156-2.640625-4.359375-9.109375-4.769532-12.28125-.792969-6.308593 7.914063-15.714843 12.453125-25.808593 12.453125-9.46875 0-18.496094-4.085938-24.765626-11.210938-3.167968-3.597656-9.109374-3.230468-11.816406.710938-4.511718 6.574219-11.957031 10.5-19.914062 10.5-7.957032 0-15.402344-3.921875-19.914063-10.5-2.699219-3.925781-8.6875-4.261719-11.816406-.710938-6.269531 7.125-15.296875 11.210938-24.765625 11.210938-10.089844.003906-19.496094-4.535156-25.804688-12.449219zm51.75 90.765625h61.496094c1.878906 8.429688 6.125 24.445313 14.867188 46.003906-4.644532-3.625-10.589844-5.222656-16.441406-4.382812-6.109376.878906-11.578126 4.332031-14.992188 9.476562-3.1875 4.804688-7.527344 8.195313-13.636719 8.082032-5.410156-.097656-9.976562-3.164063-12.730469-7.707032-3.261718-5.382812-8.6875-9.078124-14.890624-10.140624-7.246094-1.246094-13.40625 1.488281-19.007813 5.828124 9.0625-22.140624 13.421875-38.574218 15.335937-47.160156zm0 0"/></svg>