<svg id="Layer_2" enable-background="new 0 0 64 64" height="512" viewBox="0 0 64 64" width="512" xmlns="http://www.w3.org/2000/svg"><path d="m52 5c0-1.105-.895-2-2-2-.749 0-1.394.417-1.737 1.027-.088-.008-.173-.027-.263-.027-.061 0-.118.014-.178.018-.408-1.172-1.511-2.018-2.822-2.018-1.012 0-1.902.504-2.445 1.271-.492-.162-1.009-.271-1.555-.271-2.422 0-4.441 1.723-4.9 4.01-.034-.001-.066-.01-.1-.01-1.027 0-1.954.398-2.662 1.034-.114-.008-.222-.034-.338-.034-2.422 0-4.441 1.723-4.9 4.01-.034-.001-.066-.01-.1-.01-2.209 0-4 1.791-4 4s1.791 4 4 4c1.051 0 2.001-.414 2.715-1.078.55.654 1.364 1.078 2.285 1.078 1.027 0 1.932-.518 2.473-1.305.471.195.986.305 1.527.305 2.209 0 4-1.791 4-4 0-.756-.222-1.456-.587-2.059.195.023.386.059.587.059 1.12 0 2.142-.381 2.976-1.002.008 0 .016.002.024.002 1.498 0 2.789-.834 3.474-2.053.171.03.346.053.526.053 1.657 0 3-1.343 3-3 0-.09-.019-.175-.027-.263.61-.343 1.027-.988 1.027-1.737z" fill="#edeff1"/><path d="m32 16h11l2 14 8 4 2 10 7 8v10h-30-30v-10l7-8 2-10 8-4 2-14z" fill="#6e83b7"/><g fill="#ffe352"><path d="m47 29-3-14h-12-12l-3 14-6 5 9-3-1 9 6-4 2 11 4-13 1-2 10 16-2-11 3-3 1-3 9 3z"/><path d="m22 41-3 2-4 14 8-13z"/><path d="m45 34 5 2 3 11z"/></g><path d="m24 15-2 8 2-2-1 8 5-14z" fill="#ffb236"/><path d="m36 19 4 14-7-16z" fill="#ffb236"/><path d="m42 18 3 11-2-3-1 5-1-12z" fill="#ffb236"/></svg>