<svg height="512pt" viewBox="0 0 512 512" width="512pt" xmlns="http://www.w3.org/2000/svg"><path d="m361.773438 74.738281c-2.160157-.5-3.882813-2.175781-4.226563-4.367187-1.78125-11.355469-11.363281-20.027344-22.917969-20.027344-3.007812 0-5.882812.589844-8.523437 1.660156-2.710938 1.101563-5.832031-.007812-7.050781-2.667968-5.316407-11.597657-16.789063-19.625-30.089844-19.625-.8125 0-1.621094.03125-2.417969.09375-2.21875.167968-4.21875-1.25-4.96875-3.34375-3.945313-11.066407-14.285156-18.960938-26.421875-18.960938-12.125 0-22.449219 7.878906-26.410156 18.921875-.746094 2.085937-2.746094 3.410156-4.960938 3.316406-.441406-.015625-.882812-.023437-1.328125-.023437-13.304687 0-24.777343 8.023437-30.09375 19.621094-1.21875 2.660156-4.339843 3.769531-7.046875 2.671874-2.640625-1.074218-5.515625-1.664062-8.527344-1.664062-11.554687 0-21.136718 8.671875-22.917968 20.027344-.339844 2.191406-2.0625 3.871094-4.222656 4.367187-12.972657 3-22.46875 15.425781-21.304688 29.910157 1.113281 13.871093 12.234375 24.976562 25.757812 25.765624 8.695313.507813 16.574219-3.148437 21.925782-9.203124 1.792968-2.03125 4.914062-2.144532 6.882812-.28125 6.253906 5.914062 14.601563 9.53125 23.773438 9.53125 8.730468 0 16.714844-3.277344 22.855468-8.691407 1.945313-1.714843 4.867188-1.539062 6.664063.328125 4.976563 5.164063 11.875 8.363282 19.507813 8.363282 7.628906 0 14.53125-3.199219 19.503906-8.363282 1.796875-1.867187 4.722656-2.042968 6.664062-.328125 6.144532 5.414063 14.125 8.691407 22.855469 8.691407 9.171875 0 17.519531-3.617188 23.777344-9.53125 1.96875-1.863282 5.085937-1.75 6.882812.28125 5.351563 6.054687 13.230469 9.710937 21.925781 9.203124 13.523438-.789062 24.644532-11.894531 25.757813-25.765624 1.164063-14.488282-8.332031-26.914063-21.304687-29.910157zm0 0" fill="#e7eced"/><path d="m361.773438 74.738281c-2.160157-.5-3.882813-2.175781-4.226563-4.367187-1.78125-11.355469-11.363281-20.027344-22.917969-20.027344-3.007812 0-5.882812.589844-8.523437 1.660156-2.710938 1.101563-5.832031-.007812-7.050781-2.667968-5.316407-11.597657-16.789063-19.625-30.089844-19.625-.8125 0-1.621094.03125-2.417969.09375-2.21875.167968-4.21875-1.25-4.96875-3.34375-3.945313-11.066407-14.285156-18.960938-26.421875-18.960938-12.125 0-22.449219 7.878906-26.410156 18.921875-.746094 2.085937-2.746094 3.40625-4.960938 3.316406-.015625 0-.027344 0-.042968 0 4.3125 0 33.628906-.0625 33.628906 19.597657 0 2.925781 4.339844 3.769531 7.050781 2.667968 2.636719-1.070312 5.511719-1.660156 8.523437-1.660156 11.554688 0 21.136719 8.671875 22.917969 20.027344.339844 2.1875 2.0625 3.867187 4.222657 4.367187 12.972656 3 22.472656 15.421875 21.308593 29.910157-1.019531 12.679687-10.402343 23.042968-22.335937 25.332031 1.851562.308593 3.746094.480469 5.679687.480469 9.171875 0 17.519531-3.617188 23.773438-9.535157 1.96875-1.859375 5.089843-1.746093 6.882812.285157 5.351563 6.054687 13.234375 9.707031 21.925781 9.203124 13.527344-.789062 24.644532-11.894531 25.757813-25.765624 1.164063-14.488282-8.332031-26.914063-21.304687-29.910157zm0 0" fill="#d8d8d8"/><path d="m322.429688 198.332031c-.5-2.394531-2.609376-4.101562-5.054688-4.101562h-.410156c-.378906 0-.757813.023437-1.136719.039062-.042969.003907-.085937.003907-.125.003907-.417969.023437-.835937.054687-1.25.097656-.257813.023437-.511719.050781-.761719.078125-.113281.015625-.222656.027343-.332031.042969-13.027344 1.652343-23.554687 11.210937-26.671875 23.683593-5.453125 4.585938-12.488281 7.351563-20.171875 7.351563h-21.605469c-4.78125 0-9.308594-1.078125-13.367187-2.996094l-.222657-1.464844c-2.371093-15.4375-15.652343-26.835937-31.269531-26.835937h-5.589843c-2.449219 0-4.558594 1.707031-5.058594 4.101562-4.929688 23.667969-10.21875 146.234375-160.886719 276.730469h454.804687c-150.671874-130.496094-155.960937-253.0625-160.890624-276.730469zm0 0" fill="#575d60"/><path d="m341.714844 423.988281-13.230469-60.117187c-.964844-4.398438-2.722656-8.585938-5.1875-12.359375l-30.390625-46.546875c-3.824219-5.855469-5.921875-12.671875-6.054688-19.664063l-1.109374-58.839843c-.050782-2.863282.28125-5.640626.941406-8.289063-5.453125 4.589844-12.488282 7.355469-20.171875 7.355469h-21.605469c-4.78125 0-9.308594-1.082032-13.363281-2.996094l-.226563-1.464844 10.8125 70.472656c1.03125 6.726563 3.886719 13.042969 8.253906 18.261719l41.210938 49.226563c3.542969 4.230468 6.101562 9.195312 7.488281 14.535156l11.195313 43.035156c3.90625 15.015625 9.640625 29.5 17.078125 43.117188l8.382812 15.34375h69.503907c-30.539063 0-56.964844-21.246094-63.527344-51.070313zm0 0" fill="#fc4e51"/><path d="m322.429688 198.332031c-.5-2.394531-2.609376-4.101562-5.054688-4.101562h-.410156c-.378906 0-.757813.023437-1.136719.039062-.042969.003907-.085937.003907-.125.003907-.417969.023437-.835937.054687-1.25.097656-.257813.023437-.511719.050781-.761719.078125-.113281.015625-.222656.027343-.332031.042969-3.492187.445312-6.796875 1.46875-9.835937 2.953124 10.125 96.449219 38.75 209.75 117.109374 277.617188h62.6875c-150.671874-130.496094-155.960937-253.0625-160.890624-276.730469zm0 0" fill="#464c50"/><path d="m487.535156 471.726562h-463.648437c-9.050781 0-16.386719 7.335938-16.386719 16.386719s7.335938 16.386719 16.386719 16.386719h463.648437c9.050782 0 16.386719-7.335938 16.386719-16.386719s-7.335937-16.386719-16.386719-16.386719zm0 0" fill="#7bb72e"/><path d="m487.535156 464.226562h-5.164062c-9.464844-8.398437-18.613282-17.011718-27.222656-25.644531-2.929688-2.933593-7.675782-2.9375-10.609376-.015625-2.933593 2.925782-2.9375 7.675782-.011718 10.605469 5.023437 5.039063 10.226562 10.070313 15.566406 15.054687h-74.105469c-18.59375-6.613281-32.703125-22.542968-36.949219-41.847656l-13.226562-60.117187c-2.941406-13.359375-8.640625-17.125-36.628906-61.398438-7.824219-11.984375-3.640625-18.839843-5.941406-74.546875-.238282-12.417968 9.132812-23.359375 22.210937-24.507812.3125 1.777344.648437 4.003906 1.042969 6.617187 4.933594 32.554688 18.039062 119.023438 106.578125 218.050781 2.765625 3.09375 7.507812 3.347657 10.589843.59375 3.089844-2.761718 3.355469-7.503906.59375-10.589843-94.597656-105.804688-99.277343-194.648438-104.484374-219.675781-1.21875-5.839844-6.429688-10.074219-12.398438-10.074219-18.59375.363281-32.386719 12.257812-37.210938 27.003906-3.984374 2.78125-8.757812 4.292969-13.648437 4.292969-20.671875-.253906-22.933594.628906-28.328125-.964844-4.054688-17.742188-19.65625-30.332031-38.136719-30.332031h-5.589843c-5.96875 0-11.183594 4.234375-12.398438 10.074219-1.597656 7.664062-3.039062 23.5-8.585938 46.070312-.992187 4.019531 1.46875 8.082031 5.492188 9.070312 4.019531.984376 8.082031-1.46875 9.074219-5.492187 5.210937-21.207031 6.996093-36.988281 8.351562-44.722656h3.660157c12 0 22.035156 8.609375 23.855468 20.476562 11.417969 74.433594 10.085938 79.695313 20.726563 92.40625l41.210937 49.230469c7.175782 8.574219 5.832032 14.144531 17.175782 54.640625 6.777343 26.0625 17.855468 44.894531 18.253906 45.742187h-269.542969c61.992187-57.898437 104.917969-121.15625 127.683594-188.273437 1.332031-3.921875-.769531-8.179687-4.691407-9.511719-3.921874-1.324218-8.179687.773438-9.511718 4.695313-23.398438 68.976562-69.078125 133.925781-135.765625 193.089843h-5.5625c-13.171875 0-23.886719 10.714844-23.886719 23.886719s10.714844 23.886719 23.886719 23.886719h463.648437c13.171875 0 23.886719-10.714844 23.886719-23.886719s-10.714844-23.886719-23.886719-23.886719zm-170-49.515624c-11.003906-38.230469-9.757812-48.039063-20.1875-60.496094l-41.210937-49.230469c-8.992188-10.738281-6.109375-19.101563-15.429688-72.183594 1.386719.148438 2.789063.226563 4.203125.226563 18.878906-.402344 24.277344 1.078125 33.421875-1.847656 2.496094 47.808593-3.003906 60.578124 8.296875 77.886718l30.390625 46.546875c5.160157 7.910157 3.625 10.214844 17.371094 69.984375 3.324219 15.117188 11.449219 28.585938 22.738281 38.628906h-18.761718c-2.5-5.136718-13.695313-22.085937-20.832032-49.515624zm170 82.289062h-463.648437c-4.898438 0-8.886719-3.984375-8.886719-8.886719 0-4.898437 3.988281-8.886719 8.886719-8.886719h463.648437c4.898438 0 8.886719 3.988282 8.886719 8.886719 0 4.902344-3.988281 8.886719-8.886719 8.886719zm0 0"/><path d="m179.757812 128.152344c15.421876 12.875 37.296876 12.980468 52.804688.851562 13.007812 11.789063 32.9375 12.105469 46.296875 0 15.519531 12.132813 37.394531 12.015625 52.804687-.851562 21.195313 20.585937 56.503907 6.8125 58.890626-22.90625 1.386718-17.226563-9.664063-33.117188-25.859376-37.507813-3.789062-18.582031-22.515624-29.128906-39.691406-23.320312-7.230468-13.960938-21.730468-22.601563-37.019531-22.191407-5.542969-13.371093-18.511719-22.226562-32.828125-22.226562-14.304688 0-27.277344 8.855469-32.820312 22.210938-15.039063.046874-28.917969 8.691406-35.914063 22.207031-17.191406-5.808594-35.90625 4.746093-39.691406 23.320312-16.199219 4.390625-27.25 20.28125-25.863281 37.507813 2.386718 29.6875 37.664062 43.519531 58.890624 22.90625zm-28.417968-46.105469c5.226562-1.207031 9.132812-5.335937 9.941406-10.515625 1.648438-10.503906 12.128906-16.269531 21.207031-12.578125 6.480469 2.632813 13.816407-.21875 16.695313-6.492187 4.460937-9.730469 14.1875-15.65625 24.292968-15.226563 5.511719.210937 10.472657-3.105469 12.332032-8.28125 2.992187-8.347656 10.765625-13.953125 19.347656-13.953125 8.59375 0 16.375 5.617188 19.363281 13.980469 1.890625 5.304687 7.066407 8.734375 12.597657 8.300781 10.535156-.792969 20.613281 5.339844 25.121093 15.179688 2.878907 6.273437 10.210938 9.125 16.695313 6.492187 9.097656-3.699219 19.558594 2.09375 21.207031 12.582031.8125 5.175782 4.714844 9.300782 9.945313 10.511719 9.675781 2.234375 16.347656 11.691406 15.519531 22-1.433594 17.796875-22.824219 25.511719-34.589844 12.195313-4.691406-5.304688-12.703125-5.449219-17.65625-.765626-10.285156 9.726563-25.941406 9.992188-36.519531.660157-4.9375-4.351563-12.417969-4.03125-17.023438.753906-7.796875 8.089844-20.410156 8.097656-28.210937 0-4.601563-4.777344-12.078125-5.109375-17.023438-.75-10.570312 9.320313-26.226562 9.066406-36.519531-.664063-4.957031-4.691406-12.96875-4.539062-17.652344.765626-11.734375 13.273437-33.15625 5.640624-34.589844-12.195313-.832031-10.308594 5.839844-19.765625 15.519532-22zm0 0"/></svg>