<svg id="Layer_1" enable-background="new 0 0 256 256" height="512" viewBox="0 0 256 256" width="512" xmlns="http://www.w3.org/2000/svg"><path d="m47.937 26.294c-.974 11.564-13.025 13.389-13.025 13.389 10.347.487 12.925 14.059 12.925 14.059.221-9.677 13.321-14.202 13.321-14.202-9.813-.586-13.221-13.246-13.221-13.246z" fill="#d7e057"/><path d="m61.249 38.043c-8.604-.514-11.832-12.024-11.863-12.14-.19-.702-.851-1.159-1.584-1.102-.725.066-1.298.642-1.359 1.367-.86 10.215-11.313 11.963-11.755 12.032-.763.115-1.313.79-1.273 1.56s.657 1.384 1.428 1.421c9.027.426 11.498 12.719 11.521 12.843.138.711.76 1.217 1.473 1.217.042 0 .084-.002.126-.005.765-.064 1.357-.693 1.375-1.459.193-8.508 12.191-12.777 12.312-12.819.676-.235 1.092-.914.994-1.623-.098-.708-.681-1.249-1.395-1.292zm-13.566 10.346c-1.356-3.13-3.709-6.907-7.587-8.876 2.931-1.405 6.409-3.914 8.202-8.273 1.551 3.071 4.199 6.88 8.334 8.722-3.008 1.64-6.923 4.406-8.949 8.427z" fill="#3a312a"/><path d="m26.238 43.275c-.688 8.179-9.212 9.471-9.212 9.471 7.318.344 9.142 9.944 9.142 9.944.156-6.845 9.422-10.046 9.422-10.046-6.941-.415-9.352-9.369-9.352-9.369z" fill="#d7e057"/><path d="m35.68 51.146c-5.767-.345-7.972-8.185-7.993-8.264-.19-.702-.859-1.162-1.582-1.102-.726.065-1.3.643-1.361 1.368-.578 6.871-7.646 8.067-7.942 8.114-.763.115-1.313.79-1.273 1.56s.657 1.384 1.428 1.421c6.035.284 7.724 8.644 7.739 8.726.136.713.759 1.22 1.473 1.22.041 0 .083-.001.125-.005.765-.063 1.358-.694 1.376-1.461.13-5.709 8.331-8.634 8.412-8.662.676-.234 1.093-.913.996-1.622-.099-.708-.684-1.249-1.398-1.293zm-9.585 6.796c-.924-1.885-2.34-3.947-4.447-5.28 1.856-1.041 3.697-2.629 4.871-4.916 1.057 1.873 2.654 3.954 4.941 5.223-1.85 1.101-3.989 2.74-5.365 4.973z" fill="#3a312a"/><path d="m26.238 16.617c-.688 8.179-9.212 9.471-9.212 9.471 7.318.344 9.142 9.944 9.142 9.944.156-6.845 9.422-10.045 9.422-10.045-6.941-.416-9.352-9.37-9.352-9.37z" fill="#d7e057"/><path d="m35.68 24.489c-5.767-.345-7.972-8.186-7.993-8.265-.19-.702-.859-1.16-1.582-1.102-.726.065-1.3.643-1.361 1.368-.578 6.871-7.646 8.067-7.942 8.114-.763.115-1.313.79-1.273 1.56s.657 1.384 1.428 1.421c6.035.284 7.724 8.644 7.739 8.726.136.713.759 1.22 1.473 1.22.041 0 .083-.001.125-.005.765-.063 1.358-.694 1.376-1.461.13-5.71 8.331-8.634 8.412-8.662.676-.234 1.093-.913.996-1.622-.099-.707-.684-1.249-1.398-1.292zm-9.585 6.795c-.924-1.885-2.34-3.947-4.447-5.28 1.856-1.041 3.697-2.629 4.871-4.916 1.057 1.874 2.654 3.954 4.941 5.224-1.85 1.101-3.989 2.74-5.365 4.972z" fill="#3a312a"/><path d="m181.53 139.43-34.71-60.12h-37.64l-31.91 55.27-29.746 51.526-7.107 12.311-23.717 41.083h222.6z" fill="#87796f"/><path d="m240.599 238.75-92.48-160.19c-.268-.464-.763-.75-1.299-.75h-37.64c-.536 0-1.031.286-1.299.75l-61.655 106.796c-.414.718-.169 1.635.549 2.049.715.414 1.635.169 2.049-.549l61.222-106.046h35.908l90.748 157.19h-217.404l22.418-38.833c.414-.717.169-1.635-.549-2.049-.716-.413-1.635-.169-2.049.549l-23.717 41.083c-.269.464-.269 1.036 0 1.5.268.464.763.75 1.299.75h222.6c.536 0 1.031-.286 1.299-.75s.268-1.036 0-1.5z" fill="#3a312a"/><circle cx="30" cy="93" fill="#87796f" r="13.5"/><path d="m30 78c-8.271 0-15 6.729-15 15s6.729 15 15 15 15-6.729 15-15-6.729-15-15-15zm0 27c-6.617 0-12-5.383-12-12s5.383-12 12-12 12 5.383 12 12-5.383 12-12 12z" fill="#3a312a"/><circle cx="226" cy="134" fill="#87796f" r="13.5"/><path d="m226 119c-8.271 0-15 6.729-15 15s6.729 15 15 15 15-6.729 15-15-6.729-15-15-15zm0 27c-6.617 0-12-5.383-12-12s5.383-12 12-12 12 5.383 12 12-5.383 12-12 12z" fill="#3a312a"/><circle cx="220" cy="65" fill="#87796f" r="9.5"/><path d="m220 54c-6.065 0-11 4.935-11 11s4.935 11 11 11 11-4.935 11-11-4.935-11-11-11zm0 19c-4.411 0-8-3.589-8-8s3.589-8 8-8 8 3.589 8 8-3.589 8-8 8z" fill="#3a312a"/><circle cx="196" cy="96" fill="#87796f" r="9.5"/><path d="m196 85c-6.065 0-11 4.935-11 11s4.935 11 11 11 11-4.935 11-11-4.935-11-11-11zm0 19c-4.411 0-8-3.589-8-8s3.589-8 8-8 8 3.589 8 8-3.589 8-8 8z" fill="#3a312a"/><circle cx="46" cy="137" fill="#87796f" r="9.5"/><path d="m46 126c-6.065 0-11 4.935-11 11s4.935 11 11 11 11-4.935 11-11-4.935-11-11-11zm0 19c-4.411 0-8-3.589-8-8s3.589-8 8-8 8 3.589 8 8-3.589 8-8 8z" fill="#3a312a"/><path d="m181.53 139.43-34.71-60.12h-37.64l-31.91 55.27 10.23 14.92 18-14 9 16-1.043 8.138-1.809 14.109-2.148 16.753 24-20 29 14-14-44 27 20z" fill="#ef6d7a"/><path d="m182.829 138.68-34.71-60.12c-.268-.464-.763-.75-1.299-.75h-37.64c-.536 0-1.031.286-1.299.75l-31.91 55.27c-.289.5-.265 1.122.062 1.598l10.23 14.92c.234.341.599.57 1.007.634.41.065.825-.044 1.151-.298l16.625-12.931 7.903 14.049-.98 7.646c-.104.821.476 1.573 1.298 1.678.816.106 1.572-.476 1.679-1.297l1.043-8.138c.041-.32-.022-.644-.181-.926l-9-16c-.214-.38-.584-.649-1.012-.735-.424-.083-.871.019-1.217.287l-16.743 13.022-8.795-12.827 31.005-53.701h35.908l33.959 58.819-5.26 18.377-25.261-18.712c-.522-.387-1.235-.393-1.765-.015s-.755 1.055-.558 1.675l12.943 40.68-25.861-12.485c-.53-.254-1.16-.178-1.612.199l-21.066 17.555 1.662-12.965c.104-.822-.476-1.573-1.298-1.679-.82-.106-1.573.476-1.679 1.297l-2.147 16.753c-.078.612.226 1.209.767 1.506.227.124.475.185.722.185.344 0 .685-.118.96-.348l23.258-19.381 28.13 13.58c.539.261 1.181.175 1.636-.217.452-.393.628-1.017.446-1.588l-12.593-39.578 23.271 17.238c.396.293.91.372 1.375.215.466-.158.824-.535.96-1.008l6.03-21.07c.111-.392.059-.812-.144-1.164z" fill="#3a312a"/><path d="m170.353 50.262c.608-3.96.204-8.125-1.431-12.101-4.79-11.647-18.115-17.205-29.761-12.415-.517.213-1.017.448-1.51.693-6.855-8.803-18.969-12.352-29.791-7.901-11.702 4.813-17.9 17.334-15.143 29.272-6.658 1.879-12.329 6.854-14.798 13.877-4.028 11.461 1.997 24.017 13.457 28.045 7.196 2.529 14.822 1.094 20.5-3.161 2.403 2.719 5.509 4.884 9.176 6.173 10.208 3.588 21.28-.804 26.426-9.904 1.662 1.296 3.547 2.362 5.646 3.099 10.39 3.652 21.773-1.81 25.425-12.2 3.146-8.953-.486-18.631-8.196-23.477z" fill="#fae6ca"/><path d="m171.964 49.528c.461-4.066-.106-8.173-1.653-11.938-2.47-6.003-7.129-10.685-13.12-13.184-5.989-2.499-12.595-2.516-18.6-.047-.175.072-.348.146-.52.222-7.516-8.803-19.997-11.867-30.781-7.43-11.841 4.869-18.535 17.176-16.313 29.635-6.74 2.342-12.095 7.641-14.473 14.403-4.296 12.222 2.152 25.661 14.375 29.958 6.989 2.457 14.664 1.476 20.796-2.598 2.487 2.506 5.533 4.433 8.88 5.61 2.573.905 5.209 1.338 7.81 1.337 7.73 0 15.135-3.832 19.548-10.496 1.478.982 3.058 1.771 4.714 2.354 5.401 1.899 11.222 1.581 16.385-.897 5.164-2.477 9.054-6.817 10.952-12.22 3.231-9.196-.056-19.214-8-24.709zm5.169 23.714c-1.633 4.647-4.979 8.38-9.419 10.511-4.441 2.13-9.446 2.405-14.094.772-1.866-.656-3.622-1.621-5.22-2.867-.345-.269-.793-.372-1.216-.289-.429.086-.798.353-1.013.733-4.888 8.643-15.242 12.523-24.622 9.227-3.291-1.157-6.248-3.146-8.55-5.751-.295-.334-.708-.507-1.125-.507-.313 0-.63.098-.898.3-5.495 4.118-12.634 5.22-19.104 2.946-10.66-3.747-16.285-15.47-12.538-26.132 2.209-6.283 7.364-11.117 13.79-12.93.771-.218 1.234-1.002 1.055-1.781-2.649-11.477 3.345-23.063 14.252-27.548 9.921-4.079 21.45-1.023 28.037 7.435.438.563 1.211.738 1.853.421.46-.229.928-.45 1.411-.648 5.262-2.164 11.053-2.15 16.305.041 5.251 2.19 9.335 6.295 11.499 11.557 1.463 3.557 1.925 7.465 1.336 11.303-.091.591.178 1.179.685 1.497 7.333 4.61 10.449 13.537 7.576 21.71z" fill="#3a312a"/><path d="m182 143.25-5.06 17.66v.01l44.49 77.08h15.27z" fill="#695b51"/><path d="m148.63 85.45c-.24-.15-.48-.29-.72-.45-2.51 3.79-5.99 6.67-9.94 8.43l26.56 46 10.32 17.88 5.06-17.68z" fill="#d34e5c"/></svg>