<svg height="512pt" viewBox="0 0 512 512" width="512pt" xmlns="http://www.w3.org/2000/svg"><path d="m512 256c0 141.386719-114.613281 256-256 256s-256-114.613281-256-256 114.613281-256 256-256 256 114.613281 256 256zm0 0" fill="#ffce00"/><path d="m504.46875 317.808594-212.671875-212.675782-2.558594 12.214844-33.242187-33.242187-3.460938 53.367187-32.335937-32.339844 19.519531 68.890626-40.632812-40.632813 34.183593 104.0625-78.453125-78.453125-21.382812 26.203125 108.9375 108.9375-3.710938 57.199219-115.054687-115.054688-32.167969 38.613282 228.933594 228.9375c90.507812-23.445313 161.566406-95.15625 184.097656-186.027344zm0 0" fill="#ffa300"/><path d="m348.871094 140.726562 159.339844 159.339844c2.480468-14.320312 3.789062-29.039062 3.789062-44.066406 0-5.09375-.164062-10.148438-.460938-15.167969l-133.855468-133.855469zm0 0" fill="#ffa300"/><path d="m180.203125 217.210938c0-44.199219 18.878906-83.820313 18.878906-83.820313s1.84375 3.492187 4.375 8.605469c4.941407-14.515625 16.738281-36.859375 16.738281-36.859375s6.867188 13.007812 12.316407 25.621093c7.074219-18.542968 23.484375-46.648437 23.484375-46.648437s16.410156 28.109375 23.480468 46.648437c5.453126-12.613281 12.320313-25.621093 12.320313-25.621093s11.792969 22.347656 16.734375 36.863281c2.535156-5.117188 4.375-8.605469 4.375-8.605469s18.871094 42.488281 18.871094 83.835938c0 41.855469-33.929688 75.785156-75.785156 75.785156-41.851563 0-75.789063-33.949219-75.789063-75.804687zm0 0" fill="#fe6a16"/><path d="m331.78125 217.230469c0-41.351563-18.871094-83.839844-18.871094-83.839844s-1.84375 3.488281-4.375 8.605469c-4.941406-14.511719-16.738281-36.863282-16.738281-36.863282s-6.867187 13.011719-12.316406 25.625c-7.058594-18.507812-23.417969-46.539062-23.480469-46.644531v208.902344c41.851562-.003906 75.78125-33.933594 75.78125-75.785156zm0 0" fill="#f24500"/><path d="m256 512c59.300781 0 113.886719-20.171875 157.289062-54.015625-77.28125-75.734375-110.316406-181.285156-110.316406-181.285156h-93.945312s-33.035156 105.550781-110.316406 181.285156c43.402343 33.84375 97.988281 54.015625 157.289062 54.015625zm0 0" fill="#a65d4e"/><path d="m302.972656 276.699219h-46.972656v235.300781c59.300781 0 113.886719-20.171875 157.289062-54.015625-77.28125-75.734375-110.316406-181.285156-110.316406-181.285156zm0 0" fill="#784132"/><path d="m160.484375 171.632812c0 9.351563-7.578125 16.929688-16.929687 16.929688-9.347657 0-16.925782-7.578125-16.925782-16.929688 0-9.347656 7.578125-16.925781 16.925782-16.925781 9.351562 0 16.929687 7.578125 16.929687 16.925781zm0 0" fill="#fe6a16"/><g fill="#f24500"><path d="m385.632812 123.992188c0 12.257812-9.933593 22.195312-22.191406 22.195312-12.257812 0-22.195312-9.9375-22.195312-22.195312 0-12.257813 9.9375-22.195313 22.195312-22.195313 12.257813 0 22.191406 9.9375 22.191406 22.195313zm0 0"/><path d="m385.636719 220.054688c0 6.128906-4.96875 11.097656-11.097657 11.097656-6.128906 0-11.097656-4.96875-11.097656-11.097656 0-6.128907 4.96875-11.09375 11.097656-11.09375 6.128907 0 11.097657 4.964843 11.097657 11.09375zm0 0"/><path d="m413.289062 281.375c0 10.703125-8.675781 19.378906-19.375 19.378906-10.703124 0-19.378906-8.675781-19.378906-19.378906 0-10.699219 8.675782-19.375 19.378906-19.375 10.699219 0 19.375 8.675781 19.375 19.375zm0 0"/><path d="m133.433594 256.222656c0 13.890625-11.261719 25.152344-25.152344 25.152344s-25.148438-11.261719-25.148438-25.152344 11.257813-25.148437 25.148438-25.148437 25.152344 11.257812 25.152344 25.148437zm0 0"/></g></svg>