<svg height="512pt" viewBox="0 0 512 512" width="512pt" xmlns="http://www.w3.org/2000/svg"><path d="m512 256c0 141.386719-114.613281 256-256 256s-256-114.613281-256-256 114.613281-256 256-256 256 114.613281 256 256zm0 0" fill="#a65d4e"/><path d="m256 512c141.386719 0 256-114.613281 256-256 0-3.609375-.09375-7.195312-.242188-10.765625l-160.640624-160.640625-7.984376 19.152344-48.070312-48.066406-127.601562 82.183593 89.210937 89.210938-11.371094 50.761719-96.289062-96.289063-19.882813 29.164063 107.195313 107.195312-15.011719 67.007812-101.011719-101.011718-11.933593 12.046875 108.558593 108.554687-22.414062 100.042969c19.699219 4.859375 40.289062 7.453125 61.488281 7.453125zm0 0" fill="#784132"/><path d="m324.636719 72.773438c-6.425781 0-12.449219 1.714843-17.652344 4.691406-6.03125-22.511719-26.566406-39.09375-50.984375-39.09375s-44.949219 16.582031-50.984375 39.09375c-5.203125-2.980469-11.226563-4.691406-17.652344-4.691406-19.652343 0-35.585937 15.933593-35.585937 35.585937 0 19.65625 15.933594 35.589844 35.585937 35.589844 1.890625 0 3.742188-.167969 5.550781-.449219 15.945313 46.15625 23.28125 80.519531 23.28125 80.519531h79.609376s7.335937-34.363281 23.28125-80.519531c1.808593.28125 3.65625.449219 5.550781.449219 19.652343 0 35.585937-15.933594 35.585937-35.589844 0-19.652344-15.933594-35.585937-35.585937-35.585937zm0 0" fill="#fff"/><path d="m324.636719 72.773438c-6.425781 0-12.449219 1.710937-17.652344 4.691406-6.03125-22.511719-26.566406-39.09375-50.984375-39.09375-.136719 0-.269531.007812-.40625.007812v185.640625h40.210938s7.335937-34.363281 23.28125-80.519531c1.808593.28125 3.65625.449219 5.550781.449219 19.652343 0 35.585937-15.933594 35.585937-35.589844 0-19.652344-15.933594-35.585937-35.585937-35.585937zm0 0" fill="#e9edf5"/><path d="m302.972656 195.398438h-93.945312s-45.636719 145.878906-155.164063 217.691406c46.839844 60.1875 119.960938 98.910156 202.136719 98.910156s155.296875-38.722656 202.136719-98.910156c-109.527344-71.8125-155.164063-217.691406-155.164063-217.691406zm0 0" fill="#fe6a16"/><path d="m302.972656 195.398438h-47.378906v316.59375c.136719 0 .269531.007812.40625.007812 82.175781 0 155.296875-38.722656 202.136719-98.910156-109.527344-71.8125-155.164063-217.691406-155.164063-217.691406zm0 0" fill="#f24500"/><path d="m302.972656 195.398438h-93.945312s-10.519532 33.605468-33.5625 76.496093h161.070312c-23.042968-42.890625-33.5625-76.496093-33.5625-76.496093zm0 0" fill="#ff9500"/><path d="m302.972656 195.398438h-47.378906v76.496093h80.941406c-23.042968-42.890625-33.5625-76.496093-33.5625-76.496093zm0 0" fill="#fe8205"/><path d="m155.699219 195.398438c0 9.773437-7.925781 17.699218-17.699219 17.699218s-17.699219-7.925781-17.699219-17.699218c0-9.777344 7.925781-17.699219 17.699219-17.699219s17.699219 7.921875 17.699219 17.699219zm0 0" fill="#fff"/><path d="m122.5 289.59375c0 4.691406-3.804688 8.5-8.5 8.5s-8.5-3.808594-8.5-8.5c0-4.695312 3.804688-8.5 8.5-8.5s8.5 3.804688 8.5 8.5zm0 0" fill="#fff"/><g fill="#e9edf5"><path d="m391.699219 195.398438c0 9.773437-7.925781 17.699218-17.699219 17.699218s-17.699219-7.925781-17.699219-17.699218c0-9.777344 7.925781-17.699219 17.699219-17.699219s17.699219 7.921875 17.699219 17.699219zm0 0"/><path d="m406.5 289.59375c0 4.691406-3.804688 8.5-8.5 8.5s-8.5-3.808594-8.5-8.5c0-4.695312 3.804688-8.5 8.5-8.5s8.5 3.804688 8.5 8.5zm0 0"/></g></svg>