<svg height="511pt" viewBox="-31 0 511 511.93143" width="511pt" xmlns="http://www.w3.org/2000/svg"><path d="m444.625 511.929688h-440.320312l85.28125-192h269.761718zm0 0" fill="#ccdade"/><path d="m272.464844 271.929688h-96v-86.6875c-10.082032 4.433593-20.984375 6.714843-32 6.6875-44.183594 0-80-35.816407-80-80 0-44.179688 35.816406-80 80-80 5.09375.023437 10.167968.5625 15.152344 1.601562 14.898437-21.03125 39.074218-33.53125 64.847656-33.53125 25.777344 0 49.949218 12.5 64.847656 33.53125 4.984375-1.039062 10.0625-1.578125 15.152344-1.601562 44.183594 0 80 35.820312 80 80 0 44.183593-35.816406 80-80 80-11.019532.035156-21.921875-2.25-32-6.703126zm0 0" fill="#f2ecda"/><path d="m176.464844 223.929688h96v48h-96zm0 0" fill="#eae2cc"/><path d="m.464844 191.929688h32v32h-32zm0 0" fill="#f7d260"/><path d="m416.464844 191.929688h32v32h-32zm0 0" fill="#f7d260"/><path d="m368.464844 255.929688h32v32h-32zm0 0" fill="#f7d260"/><path d="m32.464844 255.929688h32v32h-32zm0 0" fill="#f7d260"/><path d="m192.464844 447.929688c7.15625.011718 14.222656-1.589844 20.671875-4.6875 3.847656 10.839843 10.125 20.652343 18.351562 28.6875 13.878907 14.277343 32.632813 22.792968 52.511719 23.839843 1.394531 0 2.785156.113281 4.160156.113281 44.996094-1.566406 80.582032-38.640624 80.304688-83.664062v-28.289062h3.585937c4.933594-.042969 9.796875-1.199219 14.222657-3.390626l-26.925782-60.609374h-269.761718l-28.433594 64h83.3125v16c0 26.511718 21.492187 48 48 48zm0 0" fill="#b6cdd3"/><path d="m339.554688 275.5c-5.289063-11.902344-17.089844-19.570312-30.113282-19.570312h-169.953125c-13.019531 0-24.824219 7.667968-30.109375 19.570312l-33.378906 75.085938c-.128906.296874-.097656.640624.078125.910156.175781.273437.480469.433594.804687.433594h98.621094c.53125 0 .960938.429687.960938.960937v47.039063c0 8.839843 7.164062 16 16 16 8.835937 0 16-7.160157 16-16v-47.039063c0-.53125.429687-.960937.960937-.960937h30.078125c.53125 0 .960938.429687.960938.960937v63.039063c.089844 25.441406 19.90625 46.441406 45.296875 48 13.625.003906 26.675781-5.476563 36.214843-15.203126 9.539063-9.730468 14.761719-22.886718 14.488282-36.507812v-59.328125c0-.53125.429687-.960937.960937-.960937h34.625c.324219 0 .625-.160157.800781-.433594.179688-.269532.207032-.613282.078126-.910156zm0 0" fill="#ff6853"/><path d="m70.578125 511.929688h35.777344l29.261719-58.527344c3.957031-7.902344.753906-17.519532-7.152344-21.472656-7.902344-3.953126-17.519532-.75-21.472656 7.152343zm0 0" fill="#b6cdd3"/><path d="m272.464844 367.929688h32v32h-32zm0 0" fill="#fff"/><path d="m128.464844 287.929688h32v32h-32zm0 0" fill="#fff"/><g fill="#f45747"><path d="m192.464844 383.929688c-8.835938 0-16-7.160157-16-16v32c0 8.839843 7.164062 16 16 16 8.835937 0 16-7.160157 16-16v-32c0 8.839843-7.164063 16-16 16zm0 0"/><path d="m176.464844 352.890625c.007812-18.199219-14.742188-32.960937-32.941406-32.960937h-53.90625l-13.617188 30.640624.882812 1.359376h98.621094c.53125 0 .960938.429687.960938.960937zm0 0"/><path d="m359.3125 319.929688c-6.058594-.003907-11.875 2.402343-16.160156 6.6875-4.285156 4.289062-6.691406 10.101562-6.6875 16.164062v10.109375c0-.53125.429687-.960937.960937-.960937h34.625l.878907-1.34375zm0 0"/><path d="m240.464844 335.929688c0-8.835938-7.164063-16-16-16-8.835938 0-16 7.164062-16 16v16.960937c0-.53125.429687-.960937.960937-.960937h30.078125c.53125 0 .960938.429687.960938.960937zm0 0"/><path d="m285.761719 431.929688c-25.390625-1.558594-45.207031-22.558594-45.296875-48v32c.089844 25.441406 19.90625 46.441406 45.296875 48 13.625.003906 26.675781-5.476563 36.214843-15.203126 9.539063-9.730468 14.761719-22.886718 14.488282-36.507812v-32c.265625 13.621094-4.957032 26.777344-14.492188 36.503906-9.539062 9.726563-22.589844 15.207032-36.210937 15.207032zm0 0"/></g><path d="m304.464844 159.929688c-11.019532.035156-21.921875-2.25-32-6.703126h-96c-10.082032 4.441407-20.980469 6.722657-32 6.703126-38-.046876-70.746094-26.777344-78.398438-64-4.804687 23.542968 1.222656 47.996093 16.421875 66.605468 15.195313 18.609375 37.953125 29.402344 61.976563 29.394532 11.015625.027343 21.917968-2.253907 32-6.6875h96c10.082031 4.449218 20.984375 6.726562 32 6.6875 24.027344.007812 46.78125-10.785157 61.980468-29.394532 15.195313-18.609375 21.226563-43.0625 16.421876-66.605468-7.65625 37.222656-40.398438 63.953124-78.402344 64zm0 0" fill="#eae2cc"/></svg>