<svg height="512pt" viewBox="-7 0 512 512.02393" width="512pt" xmlns="http://www.w3.org/2000/svg"><path d="m497.261719 512.023438-113.792969-256h-269.664062l-113.7929692 256zm0 0" fill="#ccdade"/><path d="m216.636719 384.023438c7.15625.011718 14.21875-1.589844 20.671875-4.6875 3.847656 10.839843 10.125 20.652343 18.351562 28.6875 13.875 14.277343 32.628906 22.792968 52.511719 23.839843 1.390625 0 2.785156.113281 4.160156.113281 44.996094-1.566406 80.582031-38.640624 80.304688-83.664062v-28.289062h3.582031c4.9375-.042969 9.800781-1.203126 14.226562-3.390626l-26.929687-60.609374h-269.757813l-28.433593 64h83.3125v16c0 26.511718 21.488281 48 48 48zm0 0" fill="#b6cdd3"/><path d="m248.636719 160.023438c-8.835938 0-16-7.164063-16-16v-80h32v80c0 8.835937-7.164063 16-16 16zm0 0" fill="#f7d260"/><path d="m328.636719 160.023438c-8.835938 0-16-7.164063-16-16v-94.113282c-.417969-23.355468 15.617187-43.796875 38.398437-48.957031 14.125-2.855469 28.785156.777344 39.945313 9.898437 11.160156 9.117188 17.640625 22.761719 17.65625 37.171876v16h-32v-16c0-8.835938-7.164063-16-16-16-8.835938 0-16 7.164062-16 16v96c0 8.835937-7.164063 16-16 16zm0 0" fill="#f7d260"/><path d="m168.636719 160.023438c-8.835938 0-16-7.164063-16-16v-96c0-8.835938-7.164063-16-16-16-8.835938 0-16 7.164062-16 16v16h-32v-14.113282c-.417969-23.355468 15.617187-43.796875 38.398437-48.957031 14.125-2.855469 28.785156.777344 39.945313 9.898437 11.160156 9.117188 17.640625 22.761719 17.65625 37.171876v96c0 8.835937-7.164063 16-16 16zm0 0" fill="#f7d260"/><path d="m232.636719.0234375h32v32.0000005h-32zm0 0" fill="#ff6853"/><path d="m376.636719 96.023438h32v32h-32zm0 0" fill="#ff6853"/><path d="m88.636719 96.023438h32v32h-32zm0 0" fill="#ff6853"/><path d="m363.722656 211.59375c-5.285156-11.902344-17.089844-19.570312-30.109375-19.570312h-169.953125c-13.023437 0-24.824218 7.667968-30.113281 19.570312l-33.375 75.085938c-.128906.296874-.101563.640624.078125.910156.175781.269531.476562.433594.800781.433594h98.625c.53125 0 .960938.429687.960938.960937v47.039063c0 8.835937 7.164062 16 16 16 8.835937 0 16-7.164063 16-16v-47.039063c0-.53125.429687-.960937.960937-.960937h30.078125c.53125 0 .960938.429687.960938.960937v63.039063c.085937 25.4375 19.90625 46.441406 45.296875 48 13.621094.003906 26.675781-5.476563 36.210937-15.203126 9.539063-9.730468 14.761719-22.886718 14.492188-36.507812v-59.328125c0-.53125.429687-.960937.960937-.960937h34.621094c.324219 0 .628906-.164063.804688-.433594.175781-.269532.207031-.613282.078124-.910156zm0 0" fill="#ff6853"/><path d="m94.746094 512.023438h35.777344l29.265624-58.527344c3.957032-7.90625.753907-17.519532-7.152343-21.472656-7.90625-3.957032-17.519531-.753907-21.472657 7.152343zm0 0" fill="#b6cdd3"/><path d="m152.636719 208.023438h32v32h-32zm0 0" fill="#fff"/><path d="m296.636719 304.023438h32v32h-32zm0 0" fill="#fff"/><g fill="#f45747"><path d="m216.636719 320.023438c-8.835938 0-16-7.164063-16-16v32c0 8.835937 7.164062 16 16 16 8.835937 0 16-7.164063 16-16v-32c0 8.835937-7.164063 16-16 16zm0 0"/><path d="m200.636719 288.984375c.007812-18.199219-14.742188-32.960937-32.945313-32.960937h-53.902344l-13.617187 30.640624.878906 1.359376h98.625c.53125 0 .960938.429687.960938.960937zm0 0"/><path d="m383.484375 256.023438c-6.0625-.003907-11.875 2.402343-16.160156 6.6875-4.285157 4.285156-6.691407 10.101562-6.6875 16.160156v10.113281c0-.53125.429687-.960937.960937-.960937h34.621094l.882812-1.34375zm0 0"/><path d="m264.636719 272.023438c0-8.835938-7.164063-16-16-16-8.835938 0-16 7.164062-16 16v16.960937c0-.53125.429687-.960937.960937-.960937h30.078125c.53125 0 .960938.429687.960938.960937zm0 0"/><path d="m309.933594 368.023438c-25.390625-1.558594-45.210938-22.5625-45.296875-48v32c.085937 25.4375 19.90625 46.441406 45.296875 48 13.621094.003906 26.675781-5.476563 36.210937-15.203126 9.539063-9.730468 14.761719-22.886718 14.492188-36.507812v-32c.265625 13.621094-4.957031 26.773438-14.496094 36.5-9.535156 9.726562-22.585937 15.210938-36.207031 15.210938zm0 0"/></g></svg>