<svg height="512pt" viewBox="0 0 512 512" width="512pt" xmlns="http://www.w3.org/2000/svg"><path d="m512 256c0 53.40625-16.351562 103.007812-44.34375 144.039062-5.257812 7.722657-10.941406 15.140626-17.003906 22.226563-6.976563 8.179687-14.480469 15.914063-22.433594 23.144531-45.472656 41.375-105.886719 66.589844-172.21875 66.589844s-126.746094-25.214844-172.21875-66.589844c-7.953125-7.230468-15.457031-14.964844-22.433594-23.144531-6.0625-7.085937-11.746094-14.503906-17.003906-22.226563-27.992188-41.03125-44.34375-90.632812-44.34375-144.039062 0-141.386719 114.613281-256 256-256s256 114.613281 256 256zm0 0" fill="#96d6d4"/><path d="m450.652344 422.265625c-6.976563 8.179687-14.480469 15.914063-22.433594 23.144531-45.472656 41.375-105.886719 66.589844-172.21875 66.589844s-126.746094-25.214844-172.21875-66.589844c-7.953125-7.230468-15.457031-14.964844-22.433594-23.144531zm0 0" fill="#69b8d4"/><path d="m467.65625 400.039062c-11.339844 16.636719-24.589844 31.871094-39.4375 45.371094h-344.4375c-14.847656-13.5-28.097656-28.734375-39.4375-45.371094 93.507812-91.835937 121.480469-168.96875 129.820312-204.871093 2.925782-12.625 14.117188-21.609375 27.074219-21.609375h109.515625c12.964844 0 24.136719 8.984375 27.070313 21.609375 8.339843 35.902343 36.324219 113.035156 129.832031 204.871093zm0 0" fill="#757177"/><path d="m316.886719 445.410156h-233.105469c-14.847656-13.5-28.097656-28.734375-39.4375-45.371094 93.507812-91.835937 121.480469-168.96875 129.820312-204.871093 2.925782-12.625 14.117188-21.609375 27.074219-21.609375h17.855469s-20.90625 72.503906-41.816406 126.871094c-20.917969 54.355468 33.445312-16.039063 49.488281-16.039063 16.039063 0-10.449219 84.34375 16.039063 84.34375 26.488281 0 18.117187-111.53125 34.84375-111.53125 16.074218 0-2.621094 159.710937 39.238281 188.207031zm0 0" fill="#2f373b"/><path d="m192.609375 347.824219c23.820313 0-19.515625 82.25-37.640625 82.25s16.730469-82.25 37.640625-82.25zm0 0" fill="#757177"/><path d="m13.46875 40.777344c0 21.957031 103.511719-12.546875 103.511719 10.457031 0 23-63.308594 19.199219-63.308594 33.648437 0 14.445313 130.222656-.070312 123.949219 19.796876-6.273438 19.863281-57.503906 9.289062-57.503906 23.925781s82.757812-11.539063 82.757812 27.6875c0 39.226562 107.875 17.265625 107.875 17.265625s0-11.101563 0-23.324219 85.394531-13.265625 85.394531-33.132813c0-19.863281-93.40625 0-93.40625-23 0-23.003906 109.085938-1.046874 109.085938-23.003906 0-21.957031-85.734375-12.546875-85.734375-21.953125 0-9.410156 129.652344 5.226563 129.652344-15.683593 0-20.910157-134.878907-33.460938-208.066407-33.460938s-234.207031 6.273438-234.207031 40.777344zm0 0" fill="#e6e6e6"/><path d="m409.273438 445.410156h-35.4375c-16.722657-33.464844-36.941407-96.890625-25.085938-108.742187 9.304688-9.308594 34.101562 68.28125 60.523438 108.742187zm0 0" fill="#2f373b"/><path d="m382.46875 296.230469c-17.867188 5.5625-57.425781-80.839844-78.328125-80.839844-20.914063 0-18.132813 92.007813-46.011719 92.007813s-12.546875-76.679688-43.21875-76.679688c-30.667968 0-65.210937 81.953125-83.941406 63.222656-18.722656-18.71875 17.03125-63.222656 30.96875-103.648437 9.230469-25.269531 36.242188-35.292969 65.296875-39.101563 1.457031-.191406 2.921875-.371094 4.398437-.535156 25.203126-2.769531 51.347657-1.261719 68.324219-1.261719 37.636719 0 42.84375 26.167969 52.046875 59.949219 5.730469 21.074219 48.316406 81.324219 30.464844 86.886719zm0 0" fill="#f73e3e"/><path d="m258.128906 307.398438c-27.878906 0-12.546875-76.679688-43.21875-76.679688-30.667968 0-65.210937 81.953125-83.945312 63.222656-18.71875-18.722656 17.03125-63.222656 30.972656-103.648437 9.230469-25.269531 36.242188-35.292969 65.296875-39.101563-25.214844 5.863282-61.578125 58.152344-49.957031 69.769532 12.3125 12.3125 21.375-26.027344 47.398437-21.371094 26.019531 4.640625 14.871094 107.808594 33.453125 107.808594zm0 0" fill="#d81d1d"/><g fill="#96d6d4"><path d="m260.917969 55.765625c0-5.007813-23.09375-9.0625-51.578125-9.0625-28.488282 0-51.582032 4.054687-51.582032 9.0625 0 5.003906 23.09375 9.058594 51.582032 9.058594 28.484375 0 51.578125-4.054688 51.578125-9.058594zm0 0"/><path d="m296.722656 116.898438c0-5.003907-11.546875-9.0625-25.792968-9.0625-14.242188 0-25.789063 4.058593-25.789063 9.0625 0 5.003906 11.546875 9.0625 25.789063 9.0625 14.246093 0 25.792968-4.058594 25.792968-9.0625zm0 0"/></g></svg>