<svg id="Layer_1" enable-background="new 0 0 256 256" height="512" viewBox="0 0 256 256" width="512" xmlns="http://www.w3.org/2000/svg"><path d="m160.563 226.157h-5.486c-3.014 0-5.686-2.085-6.621-5.166l-13.012-42.875-.001-.003c-1.362-3.786-2.679-7.507-3.94-11.125-.642-1.842-2.455-2.945-4.329-2.481-1.703.421-2.849 2.154-2.849 4.033v1.282c0 5.077-3.827 9.193-8.548 9.193h-8.329c-4.721 0-8.548-4.116-8.548-9.193v-.842c0-2.603-2.019-4.698-4.464-4.574-1.647.083-3.079 1.262-3.754 2.88l-5.312 12.725c-2.113 5.062-7.075 8.118-12.315 7.38-4.01-.564-7.069-2.939-8.759-6.196-9.186 23.692-20.597 50.225-31.54 67.805h142.946c-3.994-7.568-7.036-14.328-8.816-18.494-1.135-2.654-3.607-4.349-6.323-4.349z" fill="#a4c9ff"/><path d="m206.999 220.608c1.946-2.856 2.362-6.696.544-10.069l-22.011-40.843c-.911-1.691-1.687-3.452-2.316-5.267-.003-.009-.006-.018-.009-.027h-.001c-5.637-16.285-10.102-30.26-12.654-38.44-1.439-4.61-5.451-7.712-9.973-7.712h-28.189-16.131-28.188c-4.522 0-8.534 3.102-9.973 7.712-2.552 8.179-7.018 22.155-12.654 38.44l-1.892 5.979c-2.533 8.003 1.709 15.914 9.503 17.011 5.24.738 10.202-2.319 12.315-7.38l5.312-12.725c.675-1.618 2.107-2.796 3.754-2.88 2.445-.124 4.464 1.971 4.464 4.574v.842c0 5.077 3.827 9.193 8.548 9.193h8.329c4.721 0 8.548-4.116 8.548-9.193v-1.282c0-1.879 1.146-3.612 2.849-4.033 1.874-.463 3.687.64 4.329 2.481 1.261 3.618 2.578 7.34 3.94 11.125l.001.003 13.012 42.875c.935 3.081 3.607 5.166 6.621 5.166h5.486c2.716 0 5.188 1.695 6.322 4.349 1.78 4.166 4.822 10.926 8.816 18.494h47.542c-5.839-9.142-11.485-19.299-16.244-28.393z" fill="#f9a7a7"/><path d="m199.028 226.835c-4.261 0-8.304-2.346-10.355-6.212l-8.823-16.627c-.518-.976-.146-2.187.829-2.704.977-.521 2.187-.146 2.704.829l8.823 16.627c1.604 3.024 5.06 4.635 8.413 3.918 2.391-.512 4.35-2.079 5.375-4.298s.948-4.728-.212-6.88l-23.376-43.376c-.523-.972-.16-2.186.812-2.709s2.186-.16 2.71.812l23.376 43.376c1.763 3.271 1.88 7.083.321 10.456-1.558 3.373-4.535 5.753-8.168 6.532-.809.172-1.623.256-2.429.256z" fill="#3762cc"/><path d="m179.881 24.501c-.013 0-.026.001-.039.001-4.217-7.468-12.222-12.512-21.409-12.512-5.909 0-11.331 2.087-15.57 5.563-4.44-6.377-11.819-10.553-20.178-10.553s-15.738 4.176-20.178 10.552c-4.239-3.476-9.66-5.563-15.57-5.563-9.188 0-17.192 5.045-21.409 12.512-.013 0-.026-.001-.039-.001-13.573 0-24.576 11.003-24.576 24.576s11.003 24.576 24.576 24.576c.013 0 .026-.001.039-.001 4.217 7.468 12.222 12.513 21.409 12.513 5.111 0 9.857-1.562 13.789-4.232 4.043 8.03 12.355 13.541 21.958 13.541s17.915-5.511 21.958-13.541c3.932 2.67 8.678 4.232 13.789 4.232 9.188 0 17.192-5.045 21.409-12.513.013 0 .026.001.039.001 13.573 0 24.576-11.003 24.576-24.576.002-13.572-11.001-24.575-24.574-24.575z" fill="#f9cfcf"/><path d="m93.154 72.898h62.558v45.351h-62.558z" fill="#f9cfcf"/><path d="m51.132 88.255h-6.886c-.639 0-1.229.341-1.548.894l-3.443 5.963c-.319.553-.319 1.234 0 1.787l3.443 5.963c.319.553.909.894 1.548.894h6.886c.639 0 1.229-.341 1.548-.894l3.443-5.963c.319-.553.319-1.234 0-1.787l-3.443-5.963c-.32-.553-.91-.894-1.548-.894z" fill="#f9a7a7"/><path d="m50.417 128.823h-6.886c-.639 0-1.229.341-1.548.894l-3.443 5.963c-.319.553-.319 1.234 0 1.787l3.443 5.963c.319.553.909.894 1.548.894h6.886c.639 0 1.229-.341 1.548-.894l3.443-5.963c.319-.553.319-1.234 0-1.787l-3.443-5.963c-.32-.553-.91-.894-1.548-.894z" fill="#eaa97d"/><path d="m88.068 109.08c-.729 0-1.432-.4-1.785-1.095-7.117-14.014-21.646-10.219-22.26-10.051-1.068.291-2.165-.333-2.458-1.396s.326-2.162 1.388-2.458c.18-.051 18.277-4.879 26.897 12.094.5.985.107 2.189-.877 2.689-.292.147-.601.217-.905.217z" fill="#ffea92"/><path d="m53.688 123.576c-.468 0-.939-.164-1.319-.497-.83-.729-.912-1.993-.183-2.823 13.585-15.467 31.169-9.335 31.346-9.271 1.039.376 1.576 1.523 1.199 2.562-.375 1.038-1.523 1.574-2.558 1.201-.632-.225-15.245-5.217-26.982 8.148-.395.45-.948.68-1.503.68z" fill="#ffea92"/><path d="m198.351 88.255h6.886c.639 0 1.229.341 1.548.894l3.443 5.963c.319.553.319 1.234 0 1.787l-3.443 5.963c-.319.553-.909.894-1.548.894h-6.886c-.639 0-1.229-.341-1.548-.894l-3.443-5.963c-.319-.553-.319-1.234 0-1.787l3.443-5.963c.319-.553.909-.894 1.548-.894z" fill="#eaa97d"/><path d="m199.066 128.823h6.886c.639 0 1.229.341 1.548.894l3.443 5.963c.319.553.319 1.234 0 1.787l-3.443 5.963c-.319.553-.909.894-1.548.894h-6.886c-.639 0-1.229-.341-1.548-.894l-3.443-5.963c-.319-.553-.319-1.234 0-1.787l3.443-5.963c.319-.553.909-.894 1.548-.894z" fill="#f9a7a7"/><path d="m161.415 109.08c-.305 0-.614-.07-.904-.217-.985-.5-1.377-1.704-.877-2.689 8.62-16.972 26.717-12.145 26.897-12.094 1.064.297 1.686 1.4 1.389 2.464-.297 1.063-1.396 1.686-2.46 1.39-.63-.172-15.146-3.955-22.259 10.052-.354.693-1.057 1.094-1.786 1.094z" fill="#ffea92"/><path d="m195.795 123.576c-.556 0-1.108-.23-1.504-.68-11.743-13.372-26.365-8.367-26.983-8.147-1.038.372-2.183-.17-2.556-1.208-.373-1.037.162-2.18 1.199-2.555.176-.064 17.761-6.196 31.346 9.271.729.83.647 2.094-.183 2.823-.38.333-.851.496-1.319.496z" fill="#ffea92"/><g fill="#f9a7a7"><path d="m104.613 113.667c-1.104 0-2-.896-2-2v-24.914c0-1.104.896-2 2-2s2 .896 2 2v24.914c0 1.104-.896 2-2 2z"/><path d="m115.712 102.567c-1.104 0-2-.896-2-2v-24.913c0-1.104.896-2 2-2s2 .896 2 2v24.914c0 1.104-.895 1.999-2 1.999z"/><path d="m144.253 113.667c-1.104 0-2-.896-2-2v-24.914c0-1.104.896-2 2-2s2 .896 2 2v24.914c0 1.104-.896 2-2 2z"/><path d="m133.154 102.567c-1.104 0-2-.896-2-2v-24.913c0-1.104.896-2 2-2s2 .896 2 2v24.914c0 1.104-.896 1.999-2 1.999z"/></g><path d="m223.244 251h-47.542c-.742 0-1.423-.411-1.769-1.066-3.997-7.573-7.039-14.317-8.887-18.641-.814-1.904-2.574-3.135-4.483-3.135h-5.486c-3.909 0-7.339-2.646-8.535-6.585l-13.013-42.875c-1.332-3.699-2.652-7.427-3.915-11.05-.313-.897-1.134-1.403-1.96-1.198-.758.188-1.329 1.086-1.329 2.092v1.282c0 6.172-4.732 11.193-10.548 11.193h-8.329c-5.816 0-10.548-5.021-10.548-11.193v-.842c0-.766-.298-1.489-.817-1.982-.433-.412-.979-.624-1.546-.594-.818.042-1.607.69-2.01 1.653l-5.312 12.724c-2.505 6.001-8.307 9.457-14.439 8.59-4.075-.574-7.512-2.783-9.677-6.22-2.406-3.818-2.936-8.692-1.454-13.375l1.892-5.979c5.544-16.021 9.939-29.737 12.652-38.432 1.701-5.453 6.477-9.117 11.882-9.117h72.507c5.406 0 10.182 3.664 11.883 9.117 2.707 8.677 7.095 22.375 12.631 38.368.008.022.016.044.021.063.582 1.679 1.317 3.352 2.179 4.95l22.012 40.843c1.88 3.489 1.853 7.634-.01 11.087 5.479 10.417 10.737 19.58 15.636 27.246.394.615.42 1.396.068 2.038-.351.64-1.023 1.038-1.754 1.038zm-46.333-4h42.712c-4.558-7.351-9.39-15.898-14.396-25.465-.342-.654-.296-1.443.119-2.053 1.634-2.398 1.801-5.462.437-7.994l-22.012-40.843c-.963-1.787-1.785-3.658-2.444-5.561-5.563-16.069-9.967-29.817-12.684-38.526-1.178-3.773-4.418-6.308-8.064-6.308h-72.508c-3.646 0-6.887 2.535-8.064 6.308-2.721 8.721-7.129 22.479-12.673 38.498l-1.875 5.929c-1.126 3.558-.752 7.215 1.024 10.035 1.528 2.425 3.961 3.985 6.851 4.392 4.303.605 8.397-1.874 10.19-6.17l5.313-12.725c.993-2.376 3.151-3.988 5.499-4.107 1.671-.083 3.27.516 4.504 1.69 1.31 1.245 2.061 3.024 2.061 4.881v.842c0 3.966 2.938 7.193 6.548 7.193h8.329c3.61 0 6.548-3.227 6.548-7.193v-1.282c0-2.836 1.837-5.349 4.369-5.975 2.83-.703 5.707.919 6.698 3.765 1.259 3.611 2.574 7.327 3.933 11.106.012.032.023.066.033.098l13.013 42.875c.681 2.241 2.572 3.747 4.707 3.747h5.486c3.513 0 6.717 2.184 8.161 5.563 1.73 4.052 4.527 10.262 8.185 17.28z" fill="#3762cc"/><path d="m175.702 251h-142.946c-.727 0-1.396-.394-1.749-1.029s-.333-1.412.051-2.028c9.172-14.736 19.728-37.436 31.373-67.47.284-.732.971-1.231 1.756-1.274.786-.044 1.522.378 1.884 1.076 1.486 2.862 4.065 4.686 7.263 5.136 4.303.605 8.397-1.874 10.19-6.17l5.313-12.725c.993-2.376 3.151-3.988 5.499-4.107 1.671-.083 3.27.516 4.504 1.69 1.31 1.245 2.061 3.024 2.061 4.881v.842c0 3.966 2.938 7.193 6.548 7.193h8.329c3.61 0 6.548-3.227 6.548-7.193v-1.282c0-2.836 1.837-5.349 4.369-5.975 2.83-.699 5.707.919 6.698 3.765 1.259 3.611 2.574 7.327 3.933 11.106.012.032.023.066.033.098l13.013 42.875c.681 2.241 2.572 3.747 4.707 3.747h5.486c3.513 0 6.717 2.184 8.161 5.563 1.819 4.256 4.813 10.894 8.746 18.346.327.62.306 1.366-.056 1.966-.363.602-1.013.969-1.714.969zm-139.392-4h136.1c-3.251-6.367-5.758-11.951-7.363-15.708-.814-1.904-2.574-3.135-4.483-3.135h-5.486c-3.909 0-7.339-2.646-8.535-6.585l-13.013-42.875c-1.333-3.699-2.652-7.427-3.915-11.05-.313-.897-1.134-1.403-1.96-1.198-.758.188-1.329 1.086-1.329 2.092v1.282c0 6.172-4.732 11.193-10.548 11.193h-8.329c-5.816 0-10.548-5.021-10.548-11.193v-.842c0-.766-.298-1.489-.817-1.982-.433-.412-.979-.624-1.546-.594-.818.042-1.607.69-2.01 1.653l-5.312 12.724c-2.505 6.001-8.307 9.457-14.439 8.59-3.105-.437-5.864-1.857-7.951-4.03-10.443 26.62-20.019 47.324-28.516 61.658z" fill="#3762cc"/></svg>